<?xml version="1.0" encoding="UTF-8" standalone="no"?>
<!DOCTYPE svg PUBLIC "-//W3C//DTD SVG 1.1//EN" "http://www.w3.org/Graphics/SVG/1.1/DTD/svg11.dtd">
<svg width="100%" height="100%" viewBox="0 0 1000 1000" version="1.1" xmlns="http://www.w3.org/2000/svg" xmlns:xlink="http://www.w3.org/1999/xlink" xml:space="preserve" xmlns:serif="http://www.serif.com/" style="fill-rule:evenodd;clip-rule:evenodd;stroke-linecap:round;stroke-linejoin:round;stroke-miterlimit:1.5;">
    <g id="browser">
        <g transform="matrix(1.00932,0,0,1.01584,-9.18634,-15.6811)">
            <path d="M986,106.816C986,71.595 957.22,43 921.771,43L84.229,43C48.78,43 20,71.595 20,106.816L20,926.184C20,961.405 48.78,990 84.229,990L921.771,990C957.22,990 986,961.405 986,926.184L986,106.816Z" style="fill:white;"/>
            <path d="M986,106.816C986,71.595 957.22,43 921.771,43L84.229,43C48.78,43 20,71.595 20,106.816L20,926.184C20,961.405 48.78,990 84.229,990L921.771,990C957.22,990 986,961.405 986,926.184L986,106.816ZM965.359,106.816L965.359,926.184C965.359,950.086 945.828,969.492 921.771,969.492L84.229,969.492C60.172,969.492 40.641,950.086 40.641,926.184L40.641,106.816C40.641,82.914 60.172,63.508 84.229,63.508C84.229,63.508 921.771,63.508 921.771,63.508C945.828,63.508 965.359,82.914 965.359,106.816Z"/>
        </g>
        <g transform="matrix(1,0,0,1,0.857993,23)">
            <path d="M30.938,196L971,195L975,196" style="fill:none;stroke:black;stroke-width:20.83px;"/>
        </g>
        <path d="M31.796,209L631,209L965,208L965,95C965,95 968,59 930,50C930,50 914,48 905,48L75,48C75,48 50.237,51.669 41.993,64.275C41.35,65.273 40.642,66.226 39.874,67.13C38.125,69.357 34.475,74.363 33,81C33,81 31,88 32,94L31.796,209Z" style="fill:rgb(113,113,113);"/>
        <path d="M31.796,209L631,209L965,208L965,95C965,95 968,59 930,50C930,50 914,48 905,48L75,48C75,48 50.237,51.669 41.993,64.275C41.35,65.273 40.642,66.226 39.874,67.13C38.125,69.357 34.475,74.363 33,81C33,81 31,88 32,94L31.796,209ZM32.213,208.583L32.417,94.001C32.417,93.978 32.415,93.954 32.411,93.932C31.425,88.016 33.401,81.114 33.401,81.114C33.403,81.107 33.405,81.098 33.407,81.09C34.861,74.544 38.461,69.606 40.192,67.4C40.975,66.478 41.691,65.512 42.342,64.503C45.597,59.525 51.471,55.971 57.336,53.484C65.871,49.864 74.408,48.512 75.025,48.418C75.031,48.417 204,48.417 204,48.417L905,48.417C913.778,48.417 929.229,50.324 929.924,50.41C967.541,59.334 964.585,94.965 964.585,94.965C964.584,94.977 964.583,94.988 964.583,95L964.583,207.585C964.583,207.585 630.999,208.583 630.999,208.583C630.999,208.583 32.213,208.583 32.213,208.583L32.213,208.583Z"/>
        <g transform="matrix(1.0125,0,0,1.11364,-9.7875,-32.9773)">
            <path d="M943,122.429C943,110.602 932.439,101 919.43,101L246.57,101C233.561,101 223,110.602 223,122.429L223,167.571C223,179.398 233.561,189 246.57,189L919.43,189C932.439,189 943,179.398 943,167.571L943,122.429Z" style="fill:white;"/>
            <path d="M943,122.429C943,110.602 932.439,101 919.43,101L246.57,101C233.561,101 223,110.602 223,122.429L223,167.571C223,179.398 233.561,189 246.57,189L919.43,189C932.439,189 943,179.398 943,167.571L943,122.429ZM932.712,122.429L932.712,167.571C932.712,174.235 926.761,179.646 919.43,179.646L246.57,179.646C239.239,179.646 233.288,174.235 233.288,167.571L233.288,122.429C233.288,115.765 239.239,110.354 246.57,110.354L919.43,110.354C926.761,110.354 932.712,115.765 932.712,122.429Z"/>
        </g>
        <g transform="matrix(1,0,0,1,27,0)">
            <circle cx="44" cy="128.5" r="19.5" style="fill:rgb(255,63,100);"/>
            <path d="M44,109C54.762,109 63.5,117.738 63.5,128.5C63.5,139.262 54.762,148 44,148C33.238,148 24.5,139.262 24.5,128.5C24.5,117.738 33.238,109 44,109ZM44,115.25C51.313,115.25 57.25,121.187 57.25,128.5C57.25,135.813 51.313,141.75 44,141.75C36.687,141.75 30.75,135.813 30.75,128.5C30.75,121.187 36.687,115.25 44,115.25Z"/>
        </g>
        <g transform="matrix(1,0,0,1,80,0)">
            <circle cx="44" cy="128.5" r="19.5" style="fill:rgb(255,187,42);"/>
            <path d="M44,109C54.762,109 63.5,117.738 63.5,128.5C63.5,139.262 54.762,148 44,148C33.238,148 24.5,139.262 24.5,128.5C24.5,117.738 33.238,109 44,109ZM44,115.25C51.313,115.25 57.25,121.187 57.25,128.5C57.25,135.813 51.313,141.75 44,141.75C36.687,141.75 30.75,135.813 30.75,128.5C30.75,121.187 36.687,115.25 44,115.25Z"/>
        </g>
        <g transform="matrix(1,0,0,1,133,0)">
            <circle cx="44" cy="128.5" r="19.5" style="fill:rgb(0,219,68);"/>
            <path d="M44,109C54.762,109 63.5,117.738 63.5,128.5C63.5,139.262 54.762,148 44,148C33.238,148 24.5,139.262 24.5,128.5C24.5,117.738 33.238,109 44,109ZM44,115.25C51.313,115.25 57.25,121.187 57.25,128.5C57.25,135.813 51.313,141.75 44,141.75C36.687,141.75 30.75,135.813 30.75,128.5C30.75,121.187 36.687,115.25 44,115.25Z"/>
        </g>
    </g>
    <g id="alex">
        <g id="suit" transform="matrix(1.51521,0,0,1.49807,-258.278,-163.532)">
            <path d="M464.072,579.874C464.072,579.874 458.915,594.026 448.361,604.947C441.092,612.428 431.224,616.744 420.856,616.978C410.661,617.25 389.717,619.371 373,631C373,631 346,649 338,674C338,674 332.205,695.25 332.955,712.119C332.981,712.687 332.994,713.256 332.994,713.825C333,720.094 333,760 333,760L668,760L668,696C668,696 668,647 623,629C623,629 608.001,623.474 593.434,621.54C588.646,620.905 583.969,619.596 579.54,617.65C572.052,614.306 561.341,608.637 554.998,601.228C554.344,600.456 553.658,599.711 552.941,598.998C549.568,595.549 538.929,584.35 538.09,577.635C538.09,577.635 492.072,590.874 464.072,579.874Z" style="fill:rgb(0,67,92);stroke:black;stroke-width:9.68px;"/>
        </g>
        <g id="neck" transform="matrix(1.51521,0,0,1.30172,-258.278,-60.2552)">
            <path d="M457.563,601.929L500.5,650L546.946,601.858L501,526L457.563,601.929Z" style="fill:rgb(255,233,204);stroke:black;stroke-width:8.85px;"/>
        </g>
        <g id="hair" transform="matrix(1.412,0,0,1.29788,-202.135,-52.6345)">
            <path d="M391,467C391,467 363,461 365,431L367,328C367,328 371,301 397,302C397,302 417,249 470,250L607,250L587,290C587,290 632,295 629,333L628,440C628,440 629,452.863 605,456" style="fill:rgb(30,30,30);stroke:black;stroke-width:7.68px;"/>
        </g>
        <g id="head" transform="matrix(1.51521,0,0,1.49807,-257.98,-146.123)">
            <path d="M433.807,355.296C436.564,354.471 439.424,354.053 442.299,354.053C459.877,354 542.364,354 559.052,354C561.458,354 563.853,354.346 566.163,355.028C574.402,357.66 592.582,365.403 598.06,384.84C598.648,386.915 598.934,389.065 598.91,391.223C598.833,404.183 598.113,469.713 598.012,478.924C598.001,479.945 597.952,480.966 597.866,481.984C597.333,487.372 595.293,502.65 588.005,513.992C588.003,513.996 588,514 587.998,514.003C587.787,514.326 571.164,539.649 554.409,549.756C553.532,550.283 552.664,551.335 551.806,551.894C545.557,555.905 526.529,566.254 506.554,566.039C505.492,566.024 504.429,566.05 503.369,566.118C497.978,566.399 480.266,566.876 465.968,561.711C464.538,561.194 463.143,560.622 461.797,559.986C459.588,558.944 457.513,557.734 455.642,556.33C454.413,555.404 453.132,554.55 451.805,553.77C446.11,550.332 430.716,540.662 425.166,532.101C424.152,530.516 423.007,529.019 421.743,527.626C417.765,523.02 409.445,511.403 404.259,490.188C402.76,484.069 402.001,477.793 402.001,471.493C402,451.623 402,398.596 402,390.143C402,389.195 402.094,388.25 402.282,387.322C403.484,381.567 409.235,362.569 433.807,355.296Z" style="fill:rgb(255,233,204);"/>
            <path d="M558.908,556.754C576.831,545.781 594.649,518.957 594.875,518.612L594.922,518.539C603.066,505.865 605.479,488.836 606.075,482.816C606.079,482.776 606.082,482.736 606.086,482.696C606.189,481.472 606.248,480.244 606.261,479.015C606.362,469.805 607.082,404.293 607.159,391.289C607.189,388.333 606.796,385.389 605.992,382.547C599.527,359.62 578.367,350.176 568.647,347.071C568.59,347.053 568.532,347.035 568.474,347.018C565.413,346.114 562.24,345.656 559.051,345.656C542.363,345.656 459.873,345.656 442.28,345.709C438.625,345.71 434.989,346.243 431.484,347.289L431.484,347.289C402.262,355.941 395.64,378.753 394.211,385.598C394.207,385.615 394.204,385.631 394.201,385.648C393.901,387.128 393.75,388.634 393.75,390.145C393.75,398.596 393.75,451.623 393.752,471.494C393.752,478.469 394.591,485.42 396.252,492.195C401.93,515.42 411.175,528.073 415.53,533.115C415.574,533.166 415.618,533.216 415.663,533.266C416.615,534.315 417.477,535.442 418.24,536.635C418.249,536.648 418.258,536.662 418.267,536.676C424.415,546.161 441.267,557.125 447.576,560.935C447.605,560.952 447.633,560.969 447.662,560.986C448.718,561.606 449.738,562.287 450.717,563.024C450.72,563.026 450.724,563.029 450.727,563.031C453.034,564.762 455.586,566.263 458.309,567.548C459.885,568.292 461.518,568.964 463.193,569.569C478.719,575.178 497.94,574.756 503.795,574.451C503.826,574.449 503.857,574.447 503.889,574.445C504.737,574.391 505.587,574.37 506.436,574.383C506.446,574.383 506.456,574.383 506.466,574.383C528.418,574.619 549.359,563.347 556.227,558.939C556.242,558.929 556.257,558.919 556.272,558.91C557.045,558.406 558.543,557.081 558.908,556.754ZM433.807,355.296C436.564,354.471 439.424,354.053 442.299,354.053C459.877,354 542.364,354 559.052,354C561.458,354 563.853,354.346 566.163,355.028C574.402,357.66 592.582,365.403 598.06,384.84C598.648,386.915 598.934,389.065 598.91,391.223C598.833,404.183 598.113,469.713 598.012,478.924C598.001,479.945 597.952,480.966 597.866,481.984C597.333,487.372 595.293,502.65 588.005,513.992C588.003,513.996 588,514 587.998,514.003C587.787,514.326 571.164,539.649 554.409,549.756C553.532,550.283 552.664,551.335 551.806,551.894C545.557,555.905 526.529,566.254 506.554,566.039C505.492,566.024 504.429,566.05 503.369,566.118C497.978,566.399 480.266,566.876 465.968,561.711C464.538,561.194 463.143,560.622 461.797,559.986C459.588,558.944 457.513,557.734 455.642,556.33C454.413,555.404 453.132,554.55 451.805,553.77C446.11,550.332 430.716,540.662 425.166,532.101C424.152,530.516 423.007,529.019 421.743,527.626C417.765,523.02 409.445,511.403 404.259,490.188C402.76,484.069 402.001,477.793 402.001,471.493C402,451.623 402,398.596 402,390.143C402,389.195 402.094,388.25 402.282,387.322C403.484,381.567 409.235,362.569 433.807,355.296Z"/>
        </g>
        <g transform="matrix(0.771246,0,0,0.76252,114.035,218.58)">
            <path d="M580,217.192C580,217.192 587.049,587.721 511,633.721C511,633.721 530.585,635.26 552.026,628.005C565.701,623.378 577.245,619.88 588.028,614.024C589.681,613.127 591.292,612.245 592.856,611.39C595.268,610.072 597.568,608.386 599.735,606.95C600.86,606.204 601.95,605.525 603,605C626.409,593.295 667,545 676,527C685,509 695.359,471.39 694.359,439.195C693.532,412.579 694.073,323.902 694.285,293.968C694.355,283.169 691.665,272.534 686.477,263.095C679.213,249.884 665.699,233.384 640.96,223.025C631.859,219.184 622.095,217.206 612.234,217.206C599.497,217.192 580,217.192 580,217.192Z" style="fill:rgb(255,223,183);"/>
        </g>
        <g id="left-color" transform="matrix(1.51521,0,0,1.49807,-263.677,-167.345)">
            <path d="M571,617L543.293,672.347L505.563,636.293L548,597L571,617Z" style="fill:none;stroke:black;stroke-width:8.3px;"/>
        </g>
        <g id="right-color" transform="matrix(1.51521,0,0,1.49807,-258.278,-163.532)">
            <path d="M434,617L461.635,669.802L498.18,633.748L457.563,594.455L437,616" style="fill:none;stroke:black;stroke-width:8.3px;"/>
        </g>
        <g id="tie" transform="matrix(1.51521,0,0,1.6887,-258.278,-308.411)">
            <path d="M498.18,648L480,752L479,760L522,760L504.473,648L498.18,648Z" style="fill:rgb(157,0,32);stroke:black;stroke-width:6.49px;"/>
        </g>
    </g>
</svg>
