<?xml version="1.0" encoding="UTF-8" standalone="no"?>
<!DOCTYPE svg PUBLIC "-//W3C//DTD SVG 1.1//EN" "http://www.w3.org/Graphics/SVG/1.1/DTD/svg11.dtd">
<svg width="100%" height="100%" viewBox="0 0 1200 420" version="1.1" xmlns="http://www.w3.org/2000/svg" xmlns:xlink="http://www.w3.org/1999/xlink" xml:space="preserve" xmlns:serif="http://www.serif.com/" style="fill-rule:evenodd;clip-rule:evenodd;stroke-linecap:round;stroke-linejoin:round;stroke-miterlimit:1.5;">
    <g id="imac" transform="matrix(0.618195,0,0,0.624594,879.135,19.4376)">
        <g transform="matrix(1,0,0,1,-65.0476,-53.0423)">
            <path d="M409,159L112.018,159C104.859,159 98.061,162.109 93.421,167.504C90.933,170.433 88.682,174.36 87.179,179.63C86.421,182.219 86.036,184.901 86.036,187.597C86,201.345 86,265 86,265" style="fill:none;stroke:black;stroke-width:15.29px;"/>
        </g>
        <g transform="matrix(2.02966,0,0,0.893793,-712.36,239.71)">
            <path d="M549,154L453.91,154" style="fill:none;stroke:black;stroke-width:9.78px;"/>
        </g>
        <g transform="matrix(1,0,0,1,-65.0476,-53.0423)">
            <path d="M356,261L379,284L358,305L379,284L281,284" style="fill:none;stroke:rgb(107,0,127);stroke-width:15.29px;"/>
        </g>
        <g transform="matrix(1,0,0,1,-65.0476,-53.0423)">
            <path d="M398,198L126.685,198C123.586,198 120.614,199.218 118.423,201.387C116.231,203.556 115,206.498 115,209.565C115,227.506 115,260 115,260" style="fill:none;stroke:black;stroke-width:15.29px;"/>
        </g>
        <g transform="matrix(0.854643,0,0,0.963384,-18.4891,-34.9359)">
            <path d="M272,468L257,521L379,521" style="fill:none;stroke:black;stroke-width:16.78px;"/>
        </g>
        <g transform="matrix(-1,0,0,1,594.952,9.54766)">
            <path d="M356,261L379,284L358,305L379,284L281,284" style="fill:none;stroke:rgb(107,0,127);stroke-width:15.29px;"/>
        </g>
        <g transform="matrix(0.987658,0,0,0.987658,-58.8583,-48.3648)">
            <path d="M501.501,379L501.501,439.689C501.501,446.207 499.232,452.525 495.076,457.581C492.127,461.171 487.929,464.63 482.035,466.565C479.171,467.498 476.177,467.98 473.162,467.996C452.582,468.117 263.025,469.112 263.025,469.112" style="fill:none;stroke:black;stroke-width:15.48px;"/>
        </g>
        <g transform="matrix(1,0,0,1,-53.0476,-53.0423)">
            <path d="M325,468L337,517" style="fill:none;stroke:black;stroke-width:15.29px;"/>
        </g>
    </g>
    <g id="phone" transform="matrix(0.618195,0,0,0.624594,879.135,19.4376)">
        <g transform="matrix(0.936015,0,0,0.943784,-33.5147,-40.0857)">
            <path d="M572,241.667L572,125.393C572,121.636 571.073,117.935 569.297,114.607C566.834,110.076 562.301,105.481 554,106L447.035,106C445.709,106 444.388,106.178 443.111,106.529C439.614,107.549 433.83,110.204 431.175,117.23C430.405,119.287 430.011,121.46 430.011,123.651C430,143.567 430,337 430,337C430,337 428.419,349.652 445.647,353.861C448.743,354.617 451.922,355 455.113,355C467.307,355 528.865,355 549.355,355C557.012,354.999 564.268,351.642 569.141,345.844C571.603,342.901 573.329,339.275 573,335L573,287" style="fill:none;stroke:black;stroke-width:16.26px;"/>
        </g>
        <g transform="matrix(0.875,0,0,0.893617,-1.35773,-49.449)">
            <path d="M549,154L453,154" style="fill:none;stroke:black;stroke-width:9.6px;"/>
        </g>
        <g transform="matrix(0.843728,0,0,0.843728,16.2321,124.049)">
            <path d="M549,154L453,154" style="fill:none;stroke:black;stroke-width:10.07px;"/>
        </g>
        <g transform="matrix(1.14286,0,0,1.14286,-143.547,-111.031)">
            <ellipse cx="507.5" cy="336" rx="6.5" ry="7" style="stroke:black;stroke-width:2.82px;"/>
        </g>
    </g>
    <g id="ipad" transform="matrix(0.638501,0,0,0.624594,875.559,19.4376)">
        <g transform="matrix(1.08457,0,0,1.08457,-76.6254,-88.906)">
            <path d="M41,417.952L41,326.018C40.999,325.45 40.976,324.883 40.932,324.317C40.529,318.56 41.348,300 65,300L210.938,300C215.345,300 219.66,301.296 223.366,303.735C228.228,306.967 233,312.844 233,323.59L233,529" style="fill:none;stroke:black;stroke-width:13.87px;"/>
        </g>
        <g transform="matrix(1.56617,0,0,1.60104,-1371.27,22.4037)">
            <path d="M870,154L974,154L974,246" style="fill:none;stroke:black;stroke-width:5.28px;"/>
        </g>
        <g transform="matrix(1.65734,0,0,1.69199,-1411.82,-219.775)">
            <path d="M958.099,416.436C958.099,416.436 958.232,417.99 957.887,420.074C956.951,425.794 952.015,429.993 946.226,429.993C939.469,430 926,430 926,430" style="fill:none;stroke:black;stroke-width:8.98px;"/>
        </g>
    </g>
    <g transform="matrix(1.00712,0,0,1.00578,-63.473,-55.1333)">
        <g transform="matrix(1,0,0,1,3.81219,116)">
            <g transform="matrix(1,0,0,1,-3,-119)">
                <path d="M92,405C92,405 171.957,230.279 231.835,206.446C232.038,206.37 232.267,206.421 232.419,206.576C232.57,206.731 232.616,206.962 232.536,207.164C228.331,217.757 196.866,297.607 195,320L106,308C106,308 177.645,317.66 192.373,319.646C193.041,319.736 193.64,320.108 194.018,320.667C194.396,321.226 194.518,321.921 194.353,322.576C191.477,334.499 180.913,384.092 202,392C202.028,392.011 202.057,392.024 202.084,392.037C203.683,392.727 227.841,402.014 252,345C252,345 286.355,238.739 316.502,211.893C319.789,208.956 324.452,208.133 328.545,209.767C332.637,211.402 335.454,215.212 335.821,219.609C336.679,230.106 332.524,248.583 314,281C314,281 289,322.277 258,329.639C258,329.639 233,379 258,390C258,390 278,403 303,364C303,364 304,362 313,344C313.026,343.946 313.052,343.893 313.077,343.839C314.101,341.709 325.378,319.038 347.604,305.089C352.501,302.004 358.196,300.431 363.98,300.565C372.203,300.725 381.756,304.194 380,320C380,320 379,349 313,358C313,358 291,396 344,395C344,395 354.964,395.914 376.02,381.147C378.317,379.537 380.499,377.769 382.551,375.856C387.567,371.143 397.115,361.232 405.956,346.738C406.704,345.508 407.419,344.259 408.101,342.992C411.819,336.213 424.846,314.684 440,313C440,313 440.623,312.827 441.699,312.958C446.538,313.551 454.165,315.766 459.045,339.187C459.362,340.709 459.681,344.312 460,346C460,346 489,312 497,308C497,308 485,318 460,346C460,346 420,390 417,396C417,396 458,347 460,346C460,346 454,388 474,389" style="fill:none;stroke:black;stroke-width:14.68px;"/>
            </g>
            <g transform="matrix(1,0,0,1,-6,-119)">
                <path d="M476,389C476,389 516,393 524,345" style="fill:none;stroke:black;stroke-width:14.68px;"/>
            </g>
        </g>
        <g transform="matrix(1,0,0,1,-34,-17.8887)">
            <path d="M605,272C605,272 574,258 600,223C600,223 631.51,190.661 652.245,227.918C656.208,234.852 657.989,242.823 657.354,250.787C656.445,262.859 654.003,284.056 648.012,302.668C648.005,302.692 647.997,302.716 647.99,302.741C647.537,304.249 631.913,356.204 626,370C626,370 616.471,402.588 632.546,407.602C637.488,409.144 642.947,409.144 654,403.97C654,403.97 704,379 729,307C729,307 763,225 727,212" style="fill:none;stroke:black;stroke-width:14.68px;"/>
            <g transform="matrix(1,0,0,1,-14,12)">
                <path d="M765,327.639C765,327.639 734.404,358.518 744.783,381.558C747.448,387.44 753.083,391.418 759.512,391.954C768.521,392.65 783.669,390.216 800,372C800,372 836.662,328.385 811.709,305.619C808.87,303.041 805.274,301.453 801.458,301.093C795.41,300.561 786.15,302.123 777.981,313.465C774.774,317.852 773.12,323.185 773.278,328.619C773.563,338.919 778.021,356.009 802,366C802,366 821,373 848,346" style="fill:none;stroke:black;stroke-width:14.68px;"/>
            </g>
            <g transform="matrix(1,0,0,1,-14,12)">
                <path d="M856,318C856,318 844,371 839,385C839,385 862.835,349.688 870.693,341.273C871.153,340.869 871.586,340.434 871.99,339.973C872.508,339.422 893.216,315.99 910.997,315C911.083,314.995 911.169,314.986 911.254,314.976C913.34,314.76 927.595,313.925 927.064,330.434C926.961,333.694 926.369,336.92 925.308,340.004C923.337,345.727 917.648,362.32 914.762,371.522C913.741,374.83 914.609,378.432 917.024,380.91C918.834,382.725 921.67,384.134 926.161,383.851C930.249,383.594 935.709,382.687 943,378" style="fill:none;stroke:black;stroke-width:14.68px;"/>
            </g>
            <g transform="matrix(1,0,0,1,-14,12)">
                <path d="M955.505,373.573C955.295,379.607 958.073,385.534 964.993,388.997C965.067,389.035 965.14,389.076 965.21,389.12C966.878,390.078 978.597,395.783 998,381C998,381 1033,350 1035,339L1016,392.047" style="fill:none;stroke:black;stroke-width:14.68px;"/>
                <path d="M1041,322C1041,322 1041,314.727 1034.16,309.146C1030.72,306.339 1026.46,304.738 1022.02,304.587C1013.21,304.512 993.172,306.771 978.01,327.986C978.008,327.989 978.003,327.99 978,327.989C977.996,327.988 977.993,327.984 977.993,327.98C977.93,327.912 977.351,328.081 972,337C972,337 951.218,370.609 955.494,378.609" style="fill:none;stroke:black;stroke-width:14.68px;"/>
                <path d="M1068,349.949C1068,349.949 1055,370 1046,378C1045.78,378.195 1045.57,378.395 1045.36,378.598C1042.94,380.868 1033.59,388.887 1018,394C1018,394 996,403.539 991,407.27" style="fill:none;stroke:black;stroke-width:14.68px;"/>
                <path d="M991,407.27C991,407.27 965.034,420.039 956.421,432.608C955.722,433.648 954.969,434.651 954.166,435.613C950.986,439.503 944.031,450.124 950,462C950,462 960.312,473.249 973.674,465.796C974.526,465.32 975.394,464.875 976.277,464.461C979.572,462.81 988.698,457.727 994.909,448.141C994.94,448.094 994.97,448.048 995.002,448.001C995.014,447.98 1021,409.387 1019,394" style="fill:none;stroke:black;stroke-width:14.68px;"/>
            </g>
        </g>
    </g>
</svg>
