<?xml version="1.0" encoding="UTF-8" standalone="no"?>
<!DOCTYPE svg PUBLIC "-//W3C//DTD SVG 1.1//EN" "http://www.w3.org/Graphics/SVG/1.1/DTD/svg11.dtd">
<svg width="100%" height="100%" viewBox="0 0 1000 1000" version="1.1" xmlns="http://www.w3.org/2000/svg" xmlns:xlink="http://www.w3.org/1999/xlink" xml:space="preserve" xmlns:serif="http://www.serif.com/" style="fill-rule:evenodd;clip-rule:evenodd;stroke-linecap:round;stroke-linejoin:round;stroke-miterlimit:1.5;">
    <g id="browser" transform="matrix(1,0,0,1,1.5,1)">
        <g transform="matrix(1.00932,0,0,1.01584,-9.18634,-15.6811)">
            <path d="M986,106.816C986,71.595 957.22,43 921.771,43L84.229,43C48.78,43 20,71.595 20,106.816L20,926.184C20,961.405 48.78,990 84.229,990L921.771,990C957.22,990 986,961.405 986,926.184L986,106.816Z" style="fill:white;"/>
            <path d="M986,106.816C986,71.595 957.22,43 921.771,43L84.229,43C48.78,43 20,71.595 20,106.816L20,926.184C20,961.405 48.78,990 84.229,990L921.771,990C957.22,990 986,961.405 986,926.184L986,106.816ZM965.359,106.816L965.359,926.184C965.359,950.086 945.828,969.492 921.771,969.492L84.229,969.492C60.172,969.492 40.641,950.086 40.641,926.184L40.641,106.816C40.641,82.914 60.172,63.508 84.229,63.508L921.771,63.508C945.828,63.508 965.359,82.914 965.359,106.816Z"/>
        </g>
        <g transform="matrix(1,0,0,1,0.857993,23)">
            <path d="M30.938,196L971,195L975,196" style="fill:none;stroke:black;stroke-width:20.83px;"/>
        </g>
        <path d="M31.796,209L631,209L965,208L965,95C965,95 968,59 930,50C930,50 914,48 905,48L75,48C75,48 50.237,51.669 41.993,64.275C41.35,65.273 40.642,66.226 39.874,67.13C38.125,69.357 34.475,74.363 33,81C33,81 31,88 32,94L31.796,209Z" style="fill:rgb(113,113,113);"/>
        <path d="M31.796,209L631,209L965,208L965,95C965,95 968,59 930,50C930,50 914,48 905,48L75,48C75,48 50.237,51.669 41.993,64.275C41.35,65.273 40.642,66.226 39.874,67.13C38.125,69.357 34.475,74.363 33,81C33,81 31,88 32,94L31.796,209ZM32.213,208.583L32.417,94.001C32.417,93.978 32.415,93.954 32.411,93.932C31.425,88.016 33.401,81.114 33.401,81.114C33.403,81.107 33.405,81.098 33.407,81.09C34.861,74.544 38.461,69.606 40.192,67.4C40.975,66.478 41.691,65.512 42.342,64.503C45.597,59.525 51.471,55.971 57.336,53.484C65.871,49.864 74.408,48.512 75.025,48.418C75.031,48.417 204,48.417 204,48.417L905,48.417C913.778,48.417 929.229,50.324 929.924,50.41C967.541,59.334 964.585,94.965 964.585,94.965C964.584,94.977 964.583,94.988 964.583,95L964.583,207.585C964.583,207.585 630.999,208.583 630.999,208.583C630.999,208.583 32.213,208.583 32.213,208.583L32.213,208.583Z"/>
        <g transform="matrix(1.0125,0,0,1.11364,-9.7875,-32.9773)">
            <path d="M943,122.429C943,110.602 932.439,101 919.43,101L246.57,101C233.561,101 223,110.602 223,122.429L223,167.571C223,179.398 233.561,189 246.57,189L919.43,189C932.439,189 943,179.398 943,167.571L943,122.429Z" style="fill:white;"/>
            <path d="M943,122.429C943,110.602 932.439,101 919.43,101L246.57,101C233.561,101 223,110.602 223,122.429L223,167.571C223,179.398 233.561,189 246.57,189L919.43,189C932.439,189 943,179.398 943,167.571L943,122.429ZM932.712,122.429L932.712,167.571C932.712,174.235 926.761,179.646 919.43,179.646C919.43,179.646 246.57,179.646 246.57,179.646C239.239,179.646 233.288,174.235 233.288,167.571C233.288,167.571 233.288,122.429 233.288,122.429C233.288,115.765 239.239,110.354 246.57,110.354L919.43,110.354C926.761,110.354 932.712,115.765 932.712,122.429Z"/>
        </g>
        <g transform="matrix(1,0,0,1,27,0)">
            <circle cx="44" cy="128.5" r="19.5" style="fill:rgb(255,63,100);"/>
            <path d="M44,109C54.762,109 63.5,117.738 63.5,128.5C63.5,139.262 54.762,148 44,148C33.238,148 24.5,139.262 24.5,128.5C24.5,117.738 33.238,109 44,109ZM44,115.25C51.313,115.25 57.25,121.187 57.25,128.5C57.25,135.813 51.313,141.75 44,141.75C36.687,141.75 30.75,135.813 30.75,128.5C30.75,121.187 36.687,115.25 44,115.25Z"/>
        </g>
        <g transform="matrix(1,0,0,1,80,0)">
            <circle cx="44" cy="128.5" r="19.5" style="fill:rgb(255,187,42);"/>
            <path d="M44,109C54.762,109 63.5,117.738 63.5,128.5C63.5,139.262 54.762,148 44,148C33.238,148 24.5,139.262 24.5,128.5C24.5,117.738 33.238,109 44,109ZM44,115.25C51.313,115.25 57.25,121.187 57.25,128.5C57.25,135.813 51.313,141.75 44,141.75C36.687,141.75 30.75,135.813 30.75,128.5C30.75,121.187 36.687,115.25 44,115.25Z"/>
        </g>
        <g transform="matrix(1,0,0,1,133,0)">
            <circle cx="44" cy="128.5" r="19.5" style="fill:rgb(0,219,68);"/>
            <path d="M44,109C54.762,109 63.5,117.738 63.5,128.5C63.5,139.262 54.762,148 44,148C33.238,148 24.5,139.262 24.5,128.5C24.5,117.738 33.238,109 44,109ZM44,115.25C51.313,115.25 57.25,121.187 57.25,128.5C57.25,135.813 51.313,141.75 44,141.75C36.687,141.75 30.75,135.813 30.75,128.5C30.75,121.187 36.687,115.25 44,115.25Z"/>
        </g>
    </g>
    <g id="email" transform="matrix(0.566414,0,0,0.605504,155.653,243.479)">
        <g transform="matrix(1.99341,0,0,2.03503,-354.381,-478.747)">
            <path d="M327,588L332,707L395,642L327,588Z" style="fill:rgb(157,156,155);"/>
        </g>
        <g transform="matrix(1.95893,0,0,2.0624,-333.128,-480.967)">
            <path d="M327,577L327,684.958C327,687.46 328.748,689.699 331.386,690.576C334.024,691.452 336.997,690.781 338.844,688.892C352.177,675.264 372,655 372,655" style="fill:none;stroke:rgb(0,75,126);stroke-width:22.93px;"/>
        </g>
        <g transform="matrix(1.95893,0,0,2.0624,-323.334,-493.341)">
            <path d="M322,583C322,583 263.979,523.529 228.627,487.292C222.959,481.482 221.102,473.47 223.726,466.144C226.351,458.817 233.078,453.232 241.482,451.401C340.46,429.845 598.861,373.569 705.706,350.3C713.04,348.703 720.718,351.329 724.954,356.884C729.19,362.438 729.088,369.748 724.699,375.208C665.401,448.979 529.369,618.212 478.071,682.03C473.1,688.214 465.3,692.122 456.772,692.7C448.244,693.278 439.867,690.467 433.898,685.025C394.831,649.404 322,583 322,583Z" style="fill:rgb(243,243,243);stroke:rgb(0,75,126);stroke-width:19.4px;"/>
        </g>
        <g transform="matrix(1.85596,0,0,1.94516,-290.18,-425.577)">
            <path d="M736.59,349.064L445,514L322,578" style="fill:none;stroke:rgb(0,75,126);stroke-width:20.53px;"/>
        </g>
    </g>
</svg>
