<?xml version="1.0" encoding="UTF-8" standalone="no"?>
<!DOCTYPE svg PUBLIC "-//W3C//DTD SVG 1.1//EN" "http://www.w3.org/Graphics/SVG/1.1/DTD/svg11.dtd">
<svg width="100%" height="100%" viewBox="0 0 1200 640" version="1.1" xmlns="http://www.w3.org/2000/svg" xmlns:xlink="http://www.w3.org/1999/xlink" xml:space="preserve" xmlns:serif="http://www.serif.com/" style="fill-rule:evenodd;clip-rule:evenodd;stroke-linecap:round;stroke-linejoin:round;stroke-miterlimit:1.5;">
    <g id="imac" transform="matrix(0.584188,0,0,0.591019,855.236,129.891)">
        <g transform="matrix(1,0,0,1,-65.0476,-53.0423)">
            <path d="M409,159L111.296,159C107.422,159.001 103.614,159.989 100.24,161.868C95.481,164.557 89.997,169.722 87.171,179.656C86.419,182.234 86.037,184.905 86.037,187.588C86,201.317 86,265 86,265" style="fill:none;stroke:black;stroke-width:16.17px;"/>
        </g>
        <g transform="matrix(2.02966,0,0,0.893793,-712.36,239.71)">
            <path d="M549,154L453.91,154" style="fill:none;stroke:black;stroke-width:10.35px;"/>
        </g>
        <g transform="matrix(1,0,0,1,-65.0476,-53.0423)">
            <path d="M356,261L379,284L358,305L379,284L281,284" style="fill:none;stroke:rgb(107,0,127);stroke-width:16.17px;"/>
        </g>
        <g transform="matrix(1,0,0,1,-65.0476,-53.0423)">
            <path d="M398,198L127.365,198C120.536,198 115,203.472 115,210.222C115,228.287 115,260 115,260" style="fill:none;stroke:black;stroke-width:16.17px;"/>
        </g>
        <g transform="matrix(0.854643,0,0,0.963384,-18.4891,-34.9359)">
            <path d="M272,468L257,521L379,521" style="fill:none;stroke:black;stroke-width:17.74px;"/>
        </g>
        <g transform="matrix(-1,0,0,1,594.952,9.54766)">
            <path d="M356,261L379,284L358,305L379,284L281,284" style="fill:none;stroke:rgb(107,0,127);stroke-width:16.17px;"/>
        </g>
        <g transform="matrix(0.987658,0,0,0.987658,-58.8583,-48.3648)">
            <path d="M501.501,379L501.501,440.367C501.502,445.148 500.178,449.838 497.673,453.929C494.693,458.794 489.615,464.319 481.254,466.81C478.686,467.585 476.017,467.985 473.333,468C453.655,468.112 263.025,469.112 263.025,469.112" style="fill:none;stroke:black;stroke-width:16.37px;"/>
        </g>
        <g transform="matrix(1,0,0,1,-53.0476,-53.0423)">
            <path d="M325,468L337,517" style="fill:none;stroke:black;stroke-width:16.17px;"/>
        </g>
    </g>
    <g id="phone" transform="matrix(0.584188,0,0,0.591019,855.236,129.891)">
        <g transform="matrix(0.943784,0,0,0.943784,-36.8553,-40.0857)">
            <path d="M572,252.523L572,125.4C572.001,121.635 571.071,117.927 569.292,114.597C566.827,110.07 562.295,105.482 554,106L447.776,106C444.78,105.996 441.83,106.722 439.186,108.114C436.208,109.718 432.977,112.469 431.178,117.223C430.406,119.281 430.011,121.458 430.011,123.653C430,143.583 430,337 430,337C430,337 428.419,349.652 445.647,353.861C448.743,354.617 451.921,355 455.111,355C467.31,355 528.965,355 549.405,355C557.033,354.999 564.265,351.645 569.139,345.846C571.603,342.902 573.329,339.276 573,335L573,287" style="fill:none;stroke:black;stroke-width:17.13px;"/>
        </g>
        <g transform="matrix(0.875,0,0,0.893617,-3.42259,-36.6593)">
            <path d="M549,154L453,154" style="fill:none;stroke:black;stroke-width:18.28px;"/>
        </g>
        <g transform="matrix(0.843728,0,0,0.843728,13.7458,122.024)">
            <path d="M549,154L453,154" style="fill:none;stroke:black;stroke-width:19.16px;"/>
        </g>
        <g transform="matrix(1.14286,0,0,1.14286,-143.547,-111.031)">
            <ellipse cx="507.5" cy="336" rx="6.5" ry="7" style="stroke:black;stroke-width:6.29px;"/>
        </g>
    </g>
    <g id="ipad" transform="matrix(0.603377,0,0,0.591019,851.857,129.891)">
        <g transform="matrix(1.5,0,0,1,-680.438,138.548)">
            <path d="M549,154L453,154" style="fill:none;stroke:black;stroke-width:12.43px;"/>
        </g>
        <g transform="matrix(1.08457,0,0,1.08457,-76.6254,-88.906)">
            <path d="M41,417.952L41,326.012C40.999,325.444 40.976,324.876 40.932,324.31C40.53,318.546 41.357,300 65,300L211.502,300C213.436,300 215.36,300.288 217.214,300.853C223.066,302.718 233,308.085 233,323.59L233,525.228C233,531.89 230.238,538.241 225.396,542.707C221.574,546.167 216.029,548.765 208,548" style="fill:none;stroke:black;stroke-width:14.67px;"/>
        </g>
    </g>
    <g transform="matrix(0.951717,0,0,0.951717,-35.5188,59.3287)">
        <g transform="matrix(1,0,0,1,3.81219,116)">
            <g transform="matrix(1,0,0,1,-3,-119)">
                <path d="M92,405C92,405 171.896,230.412 231.766,206.473C231.981,206.392 232.224,206.446 232.384,206.61C232.545,206.774 232.594,207.018 232.509,207.231C228.2,218.091 196.862,297.654 195,320L106,308C106,308 177.166,317.595 192.223,319.626C192.929,319.721 193.562,320.113 193.962,320.704C194.362,321.294 194.491,322.027 194.318,322.719C191.395,334.888 181.002,384.099 201.984,391.994C202.008,392.004 202.032,392.014 202.056,392.026C203.377,392.607 227.688,402.375 252,345C252,345 285.339,241.882 315.152,213.146C318.679,209.797 323.849,208.842 328.339,210.711C332.83,212.58 335.796,216.92 335.907,221.782C336.071,232.593 331.308,250.712 314,281C314,281 289,322.277 258,329.639C258,329.639 233,379 258,390C258,390 278,403 303,364C303,364 304,362 313,344C313.026,343.946 313.052,343.893 313.077,343.839C314.101,341.709 325.382,319.029 347.617,305.08C351.95,302.352 356.921,300.803 362.037,300.589C370.601,300.249 381.897,302.928 380,320C380,320 379,349 313,358C313,358 291,396 344,395C344,395 354.943,395.912 375.958,381.19C378.298,379.552 380.52,377.751 382.608,375.802C387.609,371.096 397.032,361.298 405.795,347.002C406.606,345.673 407.382,344.322 408.12,342.952C411.868,336.131 424.875,314.681 440,313C440,313 440.623,312.827 441.699,312.958C446.538,313.551 454.165,315.766 459.045,339.187C459.362,340.709 459.681,344.312 460,346C460,346 489,312 497,308C497,308 485,318 460,346C460,346 420,390 417,396C417,396 458,347 460,346C460,346 454,388 474,389" style="fill:none;stroke:black;stroke-width:15.53px;"/>
            </g>
            <g transform="matrix(1,0,0,1,-6,-119)">
                <path d="M476,389C476,389 516,393 524,345" style="fill:none;stroke:black;stroke-width:15.53px;"/>
            </g>
        </g>
        <g transform="matrix(1,0,0,1,-34,-17.8887)">
            <path d="M605,272C605,272 574,258 600,223C600,223 631.505,190.666 652.24,227.91C656.207,234.847 657.989,242.82 657.354,250.787C656.445,262.859 654.004,284.055 648.013,302.666C648.005,302.691 647.997,302.717 647.989,302.742C647.525,304.288 631.911,356.209 626,370C626,370 616.471,402.588 632.546,407.602C637.488,409.144 642.947,409.144 654,403.97C654,403.97 704,379 729,307C729,307 763,225 727,212" style="fill:none;stroke:black;stroke-width:15.53px;"/>
            <g transform="matrix(1,0,0,1,-14,12)">
                <path d="M765,327.639C765,327.639 736.82,356.08 743.723,378.737C746.087,386.458 753.111,391.813 761.183,392.048C770.326,392.305 784.639,389.133 800,372C800,372 835.769,329.448 812.599,306.465C808.982,302.873 804.06,300.908 798.964,301.02C793.051,301.127 785.133,303.576 778.031,313.396C774.785,317.821 773.112,323.205 773.279,328.69C773.584,338.997 778.076,356.032 802,366C802,366 821,373 848,346" style="fill:none;stroke:black;stroke-width:15.53px;"/>
            </g>
            <g transform="matrix(1,0,0,1,-14,12)">
                <path d="M856,318C856,318 844,371 839,385C839,385 862.807,349.731 870.679,341.289C871.14,340.882 871.575,340.446 871.98,339.983C872.011,339.987 893.005,316 911,315C911.086,314.994 911.171,314.986 911.257,314.975C913.346,314.76 927.522,313.936 927.067,330.309C926.974,333.619 926.378,336.896 925.3,340.028C923.328,345.754 917.68,362.228 914.79,371.435C913.336,376.199 915.783,381.28 920.413,383.114C921.944,383.689 923.829,383.998 926.161,383.851C930.249,383.594 935.709,382.687 943,378" style="fill:none;stroke:black;stroke-width:15.53px;"/>
            </g>
            <g transform="matrix(1,0,0,1,-14,12)">
                <path d="M955.505,373.573C955.295,379.608 958.074,385.536 964.997,388.999C965.071,389.036 965.143,389.078 965.214,389.122C966.895,390.087 978.612,395.772 998,381C998,381 1033,350 1035,339L1016,392.047" style="fill:none;stroke:black;stroke-width:15.53px;"/>
                <path d="M1041,322C1041,322 1041,321.992 1041,321.977C1039.15,313.092 1031.53,306.58 1022.46,306.142C1014.01,304.43 993.473,306.351 978.011,327.985C978.008,327.988 978.003,327.99 977.999,327.988C977.995,327.987 977.992,327.984 977.992,327.979C977.926,327.914 977.332,328.113 972,337C972,337 951.218,370.609 955.494,378.609" style="fill:none;stroke:black;stroke-width:15.53px;"/>
                <path d="M1068,349.949C1068,349.949 1055.03,369.958 1046.03,377.975C1045.82,378.163 1045.61,378.355 1045.41,378.551C1043.08,380.748 1033.71,388.848 1018,394C1018,394 996,403.539 991,407.27" style="fill:none;stroke:black;stroke-width:15.53px;"/>
                <path d="M991,407.27C991,407.27 965.076,420.018 956.442,432.578C955.725,433.641 954.956,434.668 954.136,435.653C952.18,438.032 948.871,442.896 947.921,449.006C947.145,453.785 948.483,458.665 951.587,462.381C954.69,466.097 959.254,468.282 964.095,468.371C966.991,468.392 970.208,467.719 973.625,465.823C974.496,465.339 975.382,464.886 976.283,464.464C979.579,462.806 988.7,457.723 994.909,448.141C994.94,448.094 994.97,448.048 995.002,448.001C995.014,447.98 1021,409.387 1019,394" style="fill:none;stroke:black;stroke-width:15.53px;"/>
            </g>
        </g>
    </g>
</svg>
