<?xml version="1.0" encoding="UTF-8" standalone="no"?>
<!DOCTYPE svg PUBLIC "-//W3C//DTD SVG 1.1//EN" "http://www.w3.org/Graphics/SVG/1.1/DTD/svg11.dtd">
<svg width="100%" height="100%" viewBox="0 0 1000 1000" version="1.1" xmlns="http://www.w3.org/2000/svg" xmlns:xlink="http://www.w3.org/1999/xlink" xml:space="preserve" xmlns:serif="http://www.serif.com/" style="fill-rule:evenodd;clip-rule:evenodd;stroke-linecap:round;stroke-linejoin:round;stroke-miterlimit:1.5;">
    <g id="browser">
        <g transform="matrix(1.00932,0,0,1.01584,-9.18634,-15.6811)">
            <path d="M986,106.816C986,71.595 957.22,43 921.771,43L84.229,43C48.78,43 20,71.595 20,106.816L20,926.184C20,961.405 48.78,990 84.229,990L921.771,990C957.22,990 986,961.405 986,926.184L986,106.816Z" style="fill:white;"/>
            <path d="M986,106.816C986,71.595 957.22,43 921.771,43L84.229,43C48.78,43 20,71.595 20,106.816L20,926.184C20,961.405 48.78,990 84.229,990L921.771,990C957.22,990 986,961.405 986,926.184L986,106.816ZM965.359,106.816L965.359,926.184C965.359,950.086 945.828,969.492 921.771,969.492L84.229,969.492C60.172,969.492 40.641,950.086 40.641,926.184L40.641,106.816C40.641,82.914 60.172,63.508 84.229,63.508C84.229,63.508 921.771,63.508 921.771,63.508C945.828,63.508 965.359,82.914 965.359,106.816Z"/>
        </g>
        <g transform="matrix(1,0,0,1,0.857993,23)">
            <path d="M30.938,196L971,195L975,196" style="fill:none;stroke:black;stroke-width:20.83px;"/>
        </g>
        <path d="M31.796,209L631,209L965,208L965,95C965,95 968,59 930,50C930,50 914,48 905,48L75,48C75,48 50.237,51.669 41.993,64.275C41.35,65.273 40.642,66.226 39.874,67.13C38.125,69.357 34.475,74.363 33,81C33,81 31,88 32,94L31.796,209Z" style="fill:rgb(113,113,113);"/>
        <path d="M31.796,209L631,209L965,208L965,95C965,95 968,59 930,50C930,50 914,48 905,48L75,48C75,48 50.237,51.669 41.993,64.275C41.35,65.273 40.642,66.226 39.874,67.13C38.125,69.357 34.475,74.363 33,81C33,81 31,88 32,94L31.796,209ZM32.213,208.583L32.417,94.001C32.417,93.978 32.415,93.954 32.411,93.932C31.425,88.016 33.401,81.114 33.401,81.114C33.403,81.107 33.405,81.098 33.407,81.09C34.861,74.544 38.461,69.606 40.192,67.4C40.975,66.478 41.691,65.512 42.342,64.503C45.597,59.525 51.471,55.971 57.336,53.484C65.871,49.864 74.408,48.512 75.025,48.418C75.031,48.417 204,48.417 204,48.417L905,48.417C913.778,48.417 929.229,50.324 929.924,50.41C967.541,59.334 964.585,94.965 964.585,94.965C964.584,94.977 964.583,94.988 964.583,95L964.583,207.585C964.583,207.585 630.999,208.583 630.999,208.583C630.999,208.583 32.213,208.583 32.213,208.583L32.213,208.583Z"/>
        <g transform="matrix(1.0125,0,0,1.11364,-9.7875,-32.9773)">
            <path d="M943,122.429C943,110.602 932.439,101 919.43,101L246.57,101C233.561,101 223,110.602 223,122.429L223,167.571C223,179.398 233.561,189 246.57,189L919.43,189C932.439,189 943,179.398 943,167.571L943,122.429Z" style="fill:white;"/>
            <path d="M943,122.429C943,110.602 932.439,101 919.43,101L246.57,101C233.561,101 223,110.602 223,122.429L223,167.571C223,179.398 233.561,189 246.57,189L919.43,189C932.439,189 943,179.398 943,167.571L943,122.429ZM932.712,122.429L932.712,167.571C932.712,174.235 926.761,179.646 919.43,179.646L246.57,179.646C239.239,179.646 233.288,174.235 233.288,167.571L233.288,122.429C233.288,115.765 239.239,110.354 246.57,110.354L919.43,110.354C926.761,110.354 932.712,115.765 932.712,122.429Z"/>
        </g>
        <g transform="matrix(1,0,0,1,27,0)">
            <circle cx="44" cy="128.5" r="19.5" style="fill:rgb(255,63,100);"/>
            <path d="M44,109C54.762,109 63.5,117.738 63.5,128.5C63.5,139.262 54.762,148 44,148C33.238,148 24.5,139.262 24.5,128.5C24.5,117.738 33.238,109 44,109ZM44,115.25C51.313,115.25 57.25,121.187 57.25,128.5C57.25,135.813 51.313,141.75 44,141.75C36.687,141.75 30.75,135.813 30.75,128.5C30.75,121.187 36.687,115.25 44,115.25Z"/>
        </g>
        <g transform="matrix(1,0,0,1,80,0)">
            <circle cx="44" cy="128.5" r="19.5" style="fill:rgb(255,187,42);"/>
            <path d="M44,109C54.762,109 63.5,117.738 63.5,128.5C63.5,139.262 54.762,148 44,148C33.238,148 24.5,139.262 24.5,128.5C24.5,117.738 33.238,109 44,109ZM44,115.25C51.313,115.25 57.25,121.187 57.25,128.5C57.25,135.813 51.313,141.75 44,141.75C36.687,141.75 30.75,135.813 30.75,128.5C30.75,121.187 36.687,115.25 44,115.25Z"/>
        </g>
        <g transform="matrix(1,0,0,1,133,0)">
            <circle cx="44" cy="128.5" r="19.5" style="fill:rgb(0,219,68);"/>
            <path d="M44,109C54.762,109 63.5,117.738 63.5,128.5C63.5,139.262 54.762,148 44,148C33.238,148 24.5,139.262 24.5,128.5C24.5,117.738 33.238,109 44,109ZM44,115.25C51.313,115.25 57.25,121.187 57.25,128.5C57.25,135.813 51.313,141.75 44,141.75C36.687,141.75 30.75,135.813 30.75,128.5C30.75,121.187 36.687,115.25 44,115.25Z"/>
        </g>
    </g>
    <g id="setting" transform="matrix(0.664378,0,0,0.633775,186.582,270.907)">
        <g transform="matrix(1.07875,0,0,1.10846,-48.8616,-89.6527)">
            <path d="M570.442,182.323C573.545,194.404 582.732,203.878 594.54,207.173C625.319,215.753 654.407,228.412 681.197,244.513C687.64,248.445 695.667,248.501 702.163,244.66C709.114,240.585 718.396,235.097 726.739,230.163C738.902,222.972 754.274,224.943 764.314,234.983C776.022,246.691 791.774,262.443 804.893,275.562C819.484,290.153 822.335,313.06 811.782,330.908C811.781,330.909 811.781,330.91 811.78,330.911C802.892,345.944 802.526,364.669 810.821,380.052C822.489,401.513 831.974,424.324 839.014,448.179C843.883,464.562 856.816,477.141 873.089,481.32C873.77,481.534 874.462,481.712 875.156,481.89C894.265,486.798 907.659,504.329 907.659,524.432C907.659,537.982 907.659,553.642 907.659,567.648C907.659,590.702 892.299,610.806 870.385,616.434C869.91,616.556 869.437,616.678 868.966,616.799C855.045,620.375 844.031,631.219 840.034,645.284C832.868,670.685 822.908,694.921 810.529,717.657C802.793,731.921 803.112,749.313 811.365,763.271C811.68,763.869 812.025,764.451 812.37,765.036C822.579,782.3 819.821,804.458 805.707,818.572C793.696,830.583 779.322,844.957 767.842,856.437C755.718,868.561 737.153,870.942 722.464,862.257C717.685,859.431 712.814,856.551 708.456,853.974C699.284,848.551 687.968,848.556 678.801,853.987C652.868,869.32 624.812,881.424 595.19,889.77C581.891,893.519 571.553,904.206 568.056,917.823C567.517,919.791 566.998,921.813 566.476,923.844C561.666,942.573 545.076,955.634 526.098,955.634C507.848,955.634 485.301,955.634 468.103,955.634C452.541,955.634 438.938,944.925 434.994,929.567C434.994,929.567 434.994,929.566 434.993,929.566C429.832,909.473 414.812,893.557 395.327,887.534C373.113,880.775 351.835,871.861 331.721,861.064C314.881,852.078 294.718,852.453 278.21,862.057C278.192,862.027 278.192,862.027 278.191,862.028C262.71,871.035 243.241,868.396 230.602,855.578C218.642,843.448 203.773,828.368 191.769,816.194C179.075,803.32 176.716,783.233 186.071,767.664C186.071,767.664 186.071,767.663 186.071,767.663C195.327,752.257 195.769,732.968 187.229,717.138C175.23,695.082 165.536,671.601 158.432,647.024C153.743,630.898 141.063,618.491 125.073,614.384C123.293,613.886 121.488,613.422 119.695,612.962C103.44,608.787 92.047,593.875 92.047,576.775L92.047,520.284C92.047,502.032 104.208,486.115 121.558,481.659C122.606,481.39 123.656,481.12 124.702,480.851C141.19,476.616 154.306,463.893 159.282,447.307C166.659,422.419 176.732,398.684 189.137,376.419C196.826,362.574 196.599,345.574 188.542,331.948C187.733,330.514 186.886,329.082 186.04,327.651C176.703,311.86 179.226,291.594 192.135,278.685C204.866,265.954 220.745,250.075 233.031,237.789C244.579,226.241 262.261,223.973 276.251,232.245C282.879,236.164 289.797,240.254 295.403,243.569C302.592,247.82 311.47,247.782 318.624,243.47C347.873,226.086 379.841,212.825 413.719,204.444C420.366,202.84 425.602,197.624 427.333,190.884C429.383,183.002 432.198,172.044 434.797,161.925C438.857,146.116 452.86,135.091 468.88,135.091C488.407,135.091 514.52,135.091 533.485,135.091C548.111,135.091 560.896,145.157 564.604,159.592C566.522,167.061 568.608,175.182 570.442,182.323Z" style="fill:rgb(130,213,0);"/>
            <path d="M393.66,169.93C363.109,178.441 334.062,190.583 307.013,205.876L295.201,198.891C266.514,181.928 230.257,186.579 206.579,210.258C194.292,222.544 178.414,238.422 165.682,251.154C140.265,276.571 135.299,316.473 153.682,347.563C154.394,348.767 155.108,349.97 155.789,351.176C155.918,351.406 156.05,351.634 156.184,351.861C157.185,353.554 157.218,355.664 156.273,357.388C142.497,382.121 131.323,408.462 123.131,436.078C122.032,439.715 119.126,442.528 115.476,443.466C115.476,443.466 112.331,444.274 112.331,444.274C78.189,453.043 54.258,484.365 54.258,520.284C54.258,537.811 54.258,559.58 54.258,576.775C54.258,611.541 77.421,641.859 110.469,650.347C112.005,650.741 113.551,651.136 115.077,651.562C115.333,651.634 115.59,651.703 115.847,651.769C118.879,652.548 121.286,654.892 122.19,657.943C130.088,685.249 140.841,711.301 154.148,735.773C156.115,739.438 156.008,743.929 153.852,747.517C153.852,747.517 153.852,747.517 153.852,747.517C135.344,778.321 140.011,818.062 165.127,843.535C177.131,855.708 192,870.789 203.96,882.919C228.076,907.377 264.925,912.86 294.798,896.687C295.517,896.338 296.228,895.955 296.931,895.546C302.238,892.458 308.715,892.325 314.137,895.188C336.408,907.137 359.91,916.981 384.442,924.452C391.304,926.591 396.612,932.227 398.438,939.338C398.438,939.338 398.439,939.339 398.439,939.339C406.738,971.652 435.36,994.186 468.103,994.186C485.301,994.186 507.848,994.186 526.098,994.186C562.257,994.186 593.866,969.3 603.031,933.616C603.502,931.785 603.968,929.962 604.453,928.188C604.507,927.99 604.56,927.793 604.611,927.595C604.694,927.271 604.939,927.018 605.255,926.929C636.448,918.14 666.075,905.581 693.601,889.75L703.515,895.612C732.901,912.987 770.039,908.224 794.295,883.968C805.775,872.488 820.149,858.114 832.16,846.103C858.781,819.482 863.983,777.687 844.728,745.123C844.701,745.076 844.661,745.038 844.636,744.991C844.345,744.439 844.04,743.895 843.723,743.358C842.456,741.216 842.401,738.549 843.576,736.355C857.329,711.086 868.38,684.182 876.337,655.989C876.588,655.111 877.297,654.414 878.193,654.184C878.193,654.184 879.611,653.819 879.611,653.819C918.318,643.878 945.448,608.368 945.448,567.648C945.448,553.642 945.448,537.982 945.448,524.432C945.448,486.663 920.284,453.726 884.382,444.505C884.326,444.491 884.267,444.494 884.212,444.476C883.584,444.279 882.952,444.099 882.315,443.935C878.923,443.064 876.224,440.451 875.193,437.044C867.366,410.54 856.845,385.235 843.906,361.424C842.134,358.12 842.217,354.073 844.138,350.823C844.139,350.823 844.14,350.821 844.14,350.821C863.74,317.673 858.444,275.13 831.346,248.031C818.227,234.912 802.475,219.16 790.766,207.452C768.596,185.281 734.649,180.927 707.789,196.809L691.746,206.273C665.117,191.163 636.541,179.096 606.485,170.556L601.159,149.82C593.097,118.43 565.292,96.54 533.485,96.54C514.52,96.54 488.407,96.54 468.88,96.54C435.679,96.54 406.657,119.389 398.242,152.153L393.66,169.93ZM570.442,182.323C573.545,194.404 582.732,203.878 594.54,207.173C625.319,215.753 654.407,228.412 681.197,244.513C687.64,248.445 695.667,248.501 702.163,244.66C709.114,240.585 718.396,235.097 726.739,230.163C738.902,222.972 754.274,224.943 764.314,234.983C776.022,246.691 791.774,262.443 804.893,275.562C819.484,290.153 822.335,313.06 811.782,330.908C811.781,330.909 811.781,330.91 811.78,330.911C802.892,345.944 802.526,364.669 810.821,380.052C822.489,401.513 831.974,424.324 839.014,448.179C843.883,464.562 856.816,477.141 873.089,481.32C873.77,481.534 874.462,481.712 875.156,481.89C894.265,486.798 907.659,504.329 907.659,524.432C907.659,537.982 907.659,553.642 907.659,567.648C907.659,590.702 892.299,610.806 870.385,616.434C869.91,616.556 869.437,616.678 868.966,616.799C855.045,620.375 844.031,631.219 840.034,645.284C832.868,670.685 822.908,694.921 810.529,717.657C802.793,731.921 803.112,749.313 811.365,763.271C811.68,763.869 812.025,764.451 812.37,765.036C822.579,782.3 819.821,804.458 805.707,818.572C793.696,830.583 779.322,844.957 767.842,856.437C755.718,868.561 737.153,870.942 722.464,862.257C717.685,859.431 712.814,856.551 708.456,853.974C699.284,848.551 687.968,848.556 678.801,853.987C652.868,869.32 624.812,881.424 595.19,889.77C581.891,893.519 571.553,904.206 568.056,917.823C567.517,919.791 566.998,921.813 566.476,923.844C561.666,942.573 545.076,955.634 526.098,955.634C507.848,955.634 485.301,955.634 468.103,955.634C452.541,955.634 438.938,944.925 434.994,929.567C434.994,929.567 434.994,929.566 434.993,929.566C429.832,909.473 414.812,893.557 395.327,887.534C373.113,880.775 351.835,871.861 331.721,861.064C314.881,852.078 294.718,852.453 278.21,862.057C278.192,862.027 278.192,862.027 278.191,862.028C262.71,871.035 243.241,868.396 230.602,855.578C218.642,843.448 203.773,828.368 191.769,816.194C179.075,803.32 176.716,783.233 186.071,767.664C186.071,767.664 186.071,767.663 186.071,767.663C195.327,752.257 195.769,732.968 187.229,717.138C175.23,695.082 165.536,671.601 158.432,647.024C153.743,630.898 141.063,618.491 125.073,614.384C123.293,613.886 121.488,613.422 119.695,612.962C103.44,608.787 92.047,593.875 92.047,576.775L92.047,520.284C92.047,502.032 104.208,486.115 121.558,481.659C122.606,481.39 123.656,481.12 124.702,480.851C141.19,476.616 154.306,463.893 159.282,447.307C166.659,422.419 176.732,398.684 189.137,376.419C196.826,362.574 196.599,345.574 188.542,331.948C187.733,330.514 186.886,329.082 186.04,327.651C176.703,311.86 179.226,291.594 192.135,278.685C204.866,265.954 220.745,250.075 233.031,237.789C244.579,226.241 262.261,223.973 276.251,232.245C282.879,236.164 289.797,240.254 295.403,243.569C302.592,247.82 311.47,247.782 318.624,243.47C347.873,226.086 379.841,212.825 413.719,204.444C420.366,202.84 425.602,197.624 427.333,190.884C429.383,183.002 432.198,172.044 434.797,161.925C438.857,146.116 452.86,135.091 468.88,135.091C488.407,135.091 514.52,135.091 533.485,135.091C548.111,135.091 560.896,145.157 564.604,159.592C566.522,167.061 568.608,175.182 570.442,182.323ZM262.852,897.273C265.803,898.654 268.548,899.512 271.105,900.012C273.662,900.512 276.032,900.654 278.232,900.604C272.927,900.607 267.68,899.467 262.852,897.273ZM260.083,895.884C257.227,894.297 254.554,892.323 252.148,889.985C249.742,887.647 247.602,884.944 245.811,881.9C253.902,895.65 259.243,895.581 260.083,895.884Z"/>
        </g>
        <g transform="matrix(1.13987,0,0,1.17127,-79.0474,-124.521)">
            <path d="M556,157.091L317,840C317,840 388,888 419,888L432.717,933.634C432.717,933.634 427,945 473,947C519,949 542.791,946 542.791,946L567,942L578,908L585,887L628,875L661,857L681,846L703,855L732,868L787,829L808,805L821,765L806,737L810,705L830,660L835,633L898,612L903,509L899,489L885.791,480L858,470L837,458L802,369L822,316L817,299L780,261L752,232L727,222L705,239L687,248L668,238L646,229L618,220L597.5,210L586,205L578,179L567,157.091L556,157.091Z" style="fill:rgb(53,154,171);fill-opacity:0.45;"/>
        </g>
        <g transform="matrix(1.07875,0,0,1.10846,-48.7147,-89.6527)">
            <path d="M307.007,205.872L297.475,200.236C267.444,182.479 229.489,187.347 204.701,212.135C190.305,226.531 171.683,245.153 158.811,258.025C137.422,279.414 133.242,312.995 148.713,339.159C151.41,343.722 154.324,348.649 157.065,353.347C157.103,353.412 157.142,353.477 157.18,353.542C157.576,354.212 157.585,355.049 157.203,355.727C142.727,381.416 131.047,408.918 122.622,437.8C121.863,440.356 119.813,442.352 117.231,443.015C117.231,443.015 111.744,444.425 111.744,444.425C77.947,453.105 54.258,484.111 54.258,519.666C54.258,537.998 54.258,561.139 54.258,578.827C54.258,612.387 76.618,641.652 108.518,649.846C109.224,650.027 109.937,650.203 110.643,650.41C111.045,650.528 111.448,650.639 111.853,650.743C117.3,652.142 121.642,656.325 123.323,661.789C131.036,687.475 141.3,712.058 153.854,735.229C156.001,739.254 155.878,744.145 153.53,748.054C153.53,748.054 153.529,748.055 153.529,748.055C135.211,778.543 139.83,817.878 164.689,843.09C175.922,854.483 189.757,868.514 201.377,880.299C227.44,906.732 267.509,912.293 299.523,893.982C300.072,893.702 300.612,893.405 301.145,893.095C303.896,891.494 307.259,891.446 310.052,892.964C334.743,906.593 361.018,917.627 388.558,925.684C392.841,926.965 396.153,930.442 397.285,934.848C397.285,934.848 397.285,934.848 397.285,934.848C406.264,969.807 437.229,994.186 472.653,994.186C489.875,994.186 511.21,994.186 528.279,994.186C563.154,994.186 593.639,970.185 602.478,935.769C603.105,933.328 603.733,930.881 604.374,928.508C604.416,928.351 604.457,928.194 604.498,928.037C604.651,927.441 605.103,926.972 605.686,926.807C636.718,918.026 666.2,905.51 693.598,889.748L700.979,894.112C731.863,912.374 770.896,907.367 796.388,881.875C807.901,870.362 821.865,856.398 833.409,844.854C858.729,819.534 864.124,780.101 846.819,748.759C846.462,748.041 846.072,747.333 845.659,746.634C843.223,742.515 843.089,737.396 845.3,733.153C858.441,708.467 869.021,682.244 876.671,654.807C876.714,654.657 876.842,654.531 877.004,654.489C877.004,654.489 885.324,652.352 885.324,652.352C920.672,643.273 945.448,610.845 945.448,573.658L945.448,523.369C945.448,486.225 920.7,453.833 885.392,444.765L876.757,442.525C868.845,414.169 857.825,387.099 844.067,361.719C842.199,358.231 842.288,353.953 844.319,350.517C844.319,350.517 844.32,350.516 844.32,350.516C863.814,317.547 858.547,275.233 831.595,248.28C819.051,235.737 804.05,220.735 792.471,209.156C769.293,185.979 733.804,181.427 705.724,198.03L691.742,206.268C666.035,191.684 638.516,179.935 609.606,171.456C607.665,170.879 606.164,169.305 605.651,167.31L601.36,150.603C593.179,118.752 564.967,96.54 532.691,96.54C514.119,96.54 489.009,96.54 469.87,96.54C436.086,96.54 406.554,119.79 397.991,153.131C396.655,158.333 395.27,163.725 393.945,168.76C393.925,168.834 393.906,168.909 393.887,168.984C393.739,169.56 393.301,170.013 392.738,170.172C362.535,178.681 333.789,190.731 307.007,205.872ZM569.096,177.083C572.982,192.209 584.378,204.137 599.101,208.488C627.734,216.88 654.858,228.823 679.98,243.785C687.194,248.153 696.16,248.2 703.418,243.908C709.624,240.284 717.395,235.688 724.673,231.385C738.057,223.471 754.972,225.641 766.019,236.688C777.597,248.266 792.599,263.268 805.142,275.811C819.587,290.256 822.41,312.934 811.962,330.603C811.962,330.604 811.961,330.605 811.961,330.605C802.97,345.812 802.591,364.752 810.968,380.321C823.778,403.94 833.952,429.187 841.132,455.659C844.269,467.258 853.275,476.241 864.712,479.179C868.349,480.142 872.252,481.145 876.166,482.15C894.681,486.905 907.659,503.891 907.659,523.369L907.659,573.658C907.659,593.178 894.653,610.201 876.098,614.967C873.287,615.689 870.483,616.409 867.777,617.104C854.544,620.503 844.087,630.836 840.335,644.22C833.448,668.929 823.918,692.543 812.091,714.756C803.481,731.021 803.941,750.718 813.301,766.546C813.274,766.563 813.274,766.563 813.274,766.563C822.953,782.932 820.338,803.941 806.956,817.323C795.412,828.867 781.448,842.831 769.935,854.344C756.574,867.705 736.116,870.329 719.928,860.758C716.204,858.555 712.489,856.359 709.066,854.335C699.534,848.699 687.777,848.692 678.238,854.317C652.576,869.428 624.841,881.379 595.575,889.661C582.03,893.498 571.506,904.392 567.943,918.265C567.26,920.792 566.591,923.398 565.923,925.997C561.438,943.458 545.972,955.634 528.279,955.634C511.21,955.634 489.875,955.634 472.653,955.634C454.411,955.634 438.464,943.079 433.84,925.077C433.84,925.076 433.84,925.076 433.84,925.075C429.335,907.537 416.127,893.705 399.059,888.651C374.129,881.364 350.347,871.377 328.036,859.058C313.758,851.199 296.517,851.407 282.424,859.606C282.057,859.779 281.706,859.983 281.355,860.187C264.005,870.282 242.184,867.324 228.019,852.959C216.4,841.174 202.564,827.142 191.331,815.75C178.893,803.136 176.583,783.456 185.748,768.202C185.748,768.201 185.748,768.2 185.749,768.2C195.188,752.488 195.655,732.822 186.972,716.663C175.651,695.782 166.398,673.625 159.449,650.474C153.887,632.117 139.343,618.048 121.079,613.357C119.97,613.032 118.853,612.745 117.744,612.461C102.637,608.58 92.047,594.72 92.047,578.827C92.047,561.139 92.047,537.998 92.047,519.666C92.047,501.777 103.966,486.177 120.97,481.81C122.802,481.339 124.641,480.867 126.458,480.4C141.941,476.423 154.235,464.436 158.829,448.837C166.412,422.831 176.931,398.07 189.979,374.916C197.192,362.093 197.023,346.289 189.538,333.629C186.759,328.867 183.805,323.871 181.071,319.247C174.647,308.382 176.382,294.438 185.264,285.556C198.136,272.684 216.758,254.062 231.154,239.666C243.811,227.009 263.191,224.523 278.526,233.59C282.504,235.943 286.52,238.317 290.235,240.514C300.441,246.548 313.012,246.632 323.294,240.735C348.076,226.52 374.742,215.237 402.812,207.328C416.355,203.507 426.88,192.622 430.442,178.756C431.786,173.649 433.191,168.179 434.546,162.902C438.754,146.518 453.267,135.091 469.87,135.091C489.009,135.091 514.119,135.091 532.691,135.091C547.785,135.091 560.979,145.479 564.805,160.374C566.208,165.838 567.692,171.617 569.096,177.083ZM843.92,789.155C842.49,791.173 840.856,793.064 839.026,794.795C837.197,796.526 835.171,798.097 832.957,799.472C843.86,792.698 843.872,789.565 843.92,789.155ZM851.058,768.041C850.93,771.384 850.376,774.692 849.417,777.878C848.457,781.064 847.093,784.127 845.343,786.979C850.223,779.25 850.99,772.925 851.058,768.041ZM850.117,757.854L850.269,758.557L850.21,758.225L850.117,757.854ZM849.561,755.675L849.712,756.237L849.604,755.805L849.561,755.675Z"/>
        </g>
        <g transform="matrix(1.13987,0,0,1.17127,-79.8804,-123.905)">
            <path d="M500,297.726C636.675,297.726 747.637,408.688 747.637,545.363C747.637,682.037 636.675,793 500,793C363.325,793 252.363,682.037 252.363,545.363C252.363,408.688 363.325,297.726 500,297.726ZM500,315.046C627.115,315.046 730.317,418.247 730.317,545.363C730.317,672.478 627.115,775.68 500,775.68C372.885,775.68 269.683,672.478 269.683,545.363C269.683,418.247 372.885,315.046 500,315.046Z"/>
            <path d="M500,292.674C360.565,292.674 247.411,405.928 247.411,545.363C247.411,684.797 360.565,798.052 500,798.052C639.435,798.052 752.589,684.797 752.589,545.363C752.589,405.928 639.435,292.674 500,292.674ZM500,297.726C636.675,297.726 747.637,408.688 747.637,545.363C747.637,682.037 636.675,793 500,793C363.325,793 252.363,682.037 252.363,545.363C252.363,408.688 363.325,297.726 500,297.726ZM500,315.046C627.115,315.046 730.317,418.247 730.317,545.363C730.317,672.478 627.115,775.68 500,775.68C372.885,775.68 269.683,672.478 269.683,545.363C269.683,418.247 372.885,315.046 500,315.046ZM500,320.097C624.355,320.097 725.365,421.007 725.365,545.363C725.365,669.718 624.355,770.628 500,770.628C375.645,770.628 274.635,669.718 274.635,545.363C274.635,421.007 375.645,320.097 500,320.097Z"/>
        </g>
        <g transform="matrix(1.0012,0,0,1.02878,-3.15295,-39.7514)">
            <path d="M545,427L457,666" style="fill:none;stroke:black;stroke-width:34.79px;"/>
        </g>
        <g transform="matrix(1.13987,0,0,1.17127,-54.2565,-117.037)">
            <path d="M567,495L628,547.55L569,597" style="fill:none;stroke:black;stroke-width:30.56px;"/>
        </g>
        <g transform="matrix(-1.13987,0,0,1.17127,1070.11,-117.037)">
            <path d="M567,495L628,547.55L569,597" style="fill:none;stroke:black;stroke-width:30.56px;"/>
        </g>
    </g>
</svg>
